<mxfile host="app.diagrams.net" agent="Mozilla/5.0 (Windows NT 10.0; Win64; x64) AppleWebKit/537.36 (KHTML, like Gecko) Chrome/130.0.0.0 Safari/537.36" version="25.0.3">
  <diagram name="Page-1" id="e7e014a7-5840-1c2e-5031-d8a46d1fe8dd">
    <mxGraphModel dx="472" dy="641" grid="1" gridSize="10" guides="1" tooltips="1" connect="1" arrows="1" fold="1" page="1" pageScale="1" pageWidth="1169" pageHeight="826" background="none" math="0" shadow="0">
      <root>
        <mxCell id="0" />
        <mxCell id="1" parent="0" />
        <mxCell id="LuhnGRTxvPrDxVC7QRrJ-41" value="Movie" style="swimlane;fontStyle=0;childLayout=stackLayout;horizontal=1;startSize=26;fillColor=none;horizontalStack=0;resizeParent=1;resizeParentMax=0;resizeLast=0;collapsible=1;marginBottom=0;whiteSpace=wrap;html=1;" parent="1" vertex="1">
          <mxGeometry x="80" y="40" width="200" height="330" as="geometry" />
        </mxCell>
        <mxCell id="LuhnGRTxvPrDxVC7QRrJ-42" value="- id: int&lt;div&gt;- title: String&lt;div&gt;- genre: String&lt;div&gt;- ptice: double&lt;/div&gt;&lt;/div&gt;&lt;/div&gt;" style="text;strokeColor=none;fillColor=none;align=left;verticalAlign=top;spacingLeft=4;spacingRight=4;overflow=hidden;rotatable=0;points=[[0,0.5],[1,0.5]];portConstraint=eastwest;whiteSpace=wrap;html=1;" parent="LuhnGRTxvPrDxVC7QRrJ-41" vertex="1">
          <mxGeometry y="26" width="200" height="104" as="geometry" />
        </mxCell>
        <mxCell id="LuhnGRTxvPrDxVC7QRrJ-43" value="+ getId(): int&lt;div&gt;+ setId(int): void&lt;div&gt;+ getTitle(): String&lt;div&gt;+ setTitle(String): void&lt;div&gt;+ getGenre(): String&lt;div&gt;+ setGenre(String): void&lt;div&gt;+ getPrice(): double&lt;/div&gt;&lt;div&gt;+ setPrice(double): void&lt;br&gt;&lt;div&gt;&lt;span style=&quot;background-color: initial;&quot;&gt;+ toString(): String&lt;/span&gt;&lt;/div&gt;&lt;/div&gt;&lt;/div&gt;&lt;/div&gt;&lt;/div&gt;&lt;/div&gt;&lt;/div&gt;" style="text;strokeColor=none;fillColor=none;align=left;verticalAlign=top;spacingLeft=4;spacingRight=4;overflow=hidden;rotatable=0;points=[[0,0.5],[1,0.5]];portConstraint=eastwest;whiteSpace=wrap;html=1;" parent="LuhnGRTxvPrDxVC7QRrJ-41" vertex="1">
          <mxGeometry y="130" width="200" height="200" as="geometry" />
        </mxCell>
        <mxCell id="LuhnGRTxvPrDxVC7QRrJ-47" value="1" style="endArrow=open;html=1;endSize=12;startArrow=diamondThin;startSize=14;startFill=1;edgeStyle=orthogonalEdgeStyle;align=left;verticalAlign=bottom;rounded=0;" parent="1" edge="1">
          <mxGeometry x="-1" y="3" relative="1" as="geometry">
            <mxPoint x="300" y="70" as="sourcePoint" />
            <mxPoint x="430" y="70" as="targetPoint" />
          </mxGeometry>
        </mxCell>
        <mxCell id="LuhnGRTxvPrDxVC7QRrJ-48" value="MovieDAO" style="swimlane;fontStyle=0;childLayout=stackLayout;horizontal=1;startSize=26;fillColor=none;horizontalStack=0;resizeParent=1;resizeParentMax=0;resizeLast=0;collapsible=1;marginBottom=0;whiteSpace=wrap;html=1;" parent="1" vertex="1">
          <mxGeometry x="440" y="40" width="160" height="170" as="geometry" />
        </mxCell>
        <mxCell id="LuhnGRTxvPrDxVC7QRrJ-49" value=" - conn: Connection&lt;div&gt;&lt;div&gt;&lt;br&gt;&lt;/div&gt;&lt;/div&gt;" style="text;strokeColor=none;fillColor=none;align=left;verticalAlign=top;spacingLeft=4;spacingRight=4;overflow=hidden;rotatable=0;points=[[0,0.5],[1,0.5]];portConstraint=eastwest;whiteSpace=wrap;html=1;" parent="LuhnGRTxvPrDxVC7QRrJ-48" vertex="1">
          <mxGeometry y="26" width="160" height="34" as="geometry" />
        </mxCell>
        <mxCell id="LuhnGRTxvPrDxVC7QRrJ-50" value="+ MovieDAO()&lt;div&gt;+ insert(Movie): int&lt;div&gt;+ read(int): Movie&lt;div&gt;+ update(Movie): void&lt;div&gt;+ delete(Movie): void&lt;div&gt;+ findAll(): List&amp;lt;Movie&amp;gt;&lt;/div&gt;&lt;/div&gt;&lt;/div&gt;&lt;/div&gt;&lt;/div&gt;" style="text;strokeColor=none;fillColor=none;align=left;verticalAlign=top;spacingLeft=4;spacingRight=4;overflow=hidden;rotatable=0;points=[[0,0.5],[1,0.5]];portConstraint=eastwest;whiteSpace=wrap;html=1;" parent="LuhnGRTxvPrDxVC7QRrJ-48" vertex="1">
          <mxGeometry y="60" width="160" height="110" as="geometry" />
        </mxCell>
        <mxCell id="LuhnGRTxvPrDxVC7QRrJ-53" value="Booking" style="swimlane;fontStyle=0;childLayout=stackLayout;horizontal=1;startSize=26;fillColor=none;horizontalStack=0;resizeParent=1;resizeParentMax=0;resizeLast=0;collapsible=1;marginBottom=0;whiteSpace=wrap;html=1;" parent="1" vertex="1">
          <mxGeometry x="80" y="400" width="200" height="320" as="geometry" />
        </mxCell>
        <mxCell id="LuhnGRTxvPrDxVC7QRrJ-54" value="- id: int&lt;div&gt;- userName: String&lt;/div&gt;&lt;div&gt;- movieTitle: String&lt;/div&gt;&lt;div&gt;- seatCount: int&lt;/div&gt;&lt;div&gt;- bookingDate: Date &lt;/div&gt;" style="text;strokeColor=none;fillColor=none;align=left;verticalAlign=top;spacingLeft=4;spacingRight=4;overflow=hidden;rotatable=0;points=[[0,0.5],[1,0.5]];portConstraint=eastwest;whiteSpace=wrap;html=1;" parent="LuhnGRTxvPrDxVC7QRrJ-53" vertex="1">
          <mxGeometry y="26" width="200" height="94" as="geometry" />
        </mxCell>
        <mxCell id="LuhnGRTxvPrDxVC7QRrJ-55" value="+ getId(): int&lt;div&gt;+ setId(int): void&lt;/div&gt;&lt;div&gt;+ getUserName(): String&lt;/div&gt;&lt;div&gt;+ setUserName(String): void&lt;/div&gt;&lt;div&gt;+ getMovieTitle(): String&lt;/div&gt;&lt;div&gt;+ setMovieTitle(String): void&lt;/div&gt;&lt;div&gt;+ getSeatCount(): int&lt;/div&gt;&lt;div&gt;+ setSeatCount(int): void&lt;/div&gt;&lt;div&gt;+ getBookingDate(): Date&lt;/div&gt;&lt;div&gt;+ setBookingDate(Date): void&lt;/div&gt;&lt;div&gt;+ toString(): String&lt;/div&gt;" style="text;strokeColor=none;fillColor=none;align=left;verticalAlign=top;spacingLeft=4;spacingRight=4;overflow=hidden;rotatable=0;points=[[0,0.5],[1,0.5]];portConstraint=eastwest;whiteSpace=wrap;html=1;" parent="LuhnGRTxvPrDxVC7QRrJ-53" vertex="1">
          <mxGeometry y="120" width="200" height="200" as="geometry" />
        </mxCell>
        <mxCell id="LuhnGRTxvPrDxVC7QRrJ-58" value="1" style="endArrow=open;html=1;endSize=12;startArrow=diamondThin;startSize=14;startFill=1;edgeStyle=orthogonalEdgeStyle;align=left;verticalAlign=bottom;rounded=0;" parent="1" edge="1">
          <mxGeometry x="-1" y="3" relative="1" as="geometry">
            <mxPoint x="300" y="413" as="sourcePoint" />
            <mxPoint x="430" y="413" as="targetPoint" />
          </mxGeometry>
        </mxCell>
        <mxCell id="LuhnGRTxvPrDxVC7QRrJ-59" value="BookingDAO" style="swimlane;fontStyle=0;childLayout=stackLayout;horizontal=1;startSize=26;fillColor=none;horizontalStack=0;resizeParent=1;resizeParentMax=0;resizeLast=0;collapsible=1;marginBottom=0;whiteSpace=wrap;html=1;" parent="1" vertex="1">
          <mxGeometry x="440" y="400" width="160" height="160" as="geometry" />
        </mxCell>
        <mxCell id="LuhnGRTxvPrDxVC7QRrJ-60" value="- conn: Connection" style="text;strokeColor=none;fillColor=none;align=left;verticalAlign=top;spacingLeft=4;spacingRight=4;overflow=hidden;rotatable=0;points=[[0,0.5],[1,0.5]];portConstraint=eastwest;whiteSpace=wrap;html=1;" parent="LuhnGRTxvPrDxVC7QRrJ-59" vertex="1">
          <mxGeometry y="26" width="160" height="26" as="geometry" />
        </mxCell>
        <mxCell id="LuhnGRTxvPrDxVC7QRrJ-61" value=" + BookingDAO()&lt;div&gt;+ insert(Booking): int&lt;div&gt;+ read(int): Booking&lt;div&gt;+ update(Booking): void&lt;div&gt;+ delete(Booking): void&lt;div&gt;+ findAll(): List&amp;lt;Booking&amp;gt;&lt;/div&gt;&lt;/div&gt;&lt;/div&gt;&lt;/div&gt;&lt;/div&gt;" style="text;strokeColor=none;fillColor=none;align=left;verticalAlign=top;spacingLeft=4;spacingRight=4;overflow=hidden;rotatable=0;points=[[0,0.5],[1,0.5]];portConstraint=eastwest;whiteSpace=wrap;html=1;" parent="LuhnGRTxvPrDxVC7QRrJ-59" vertex="1">
          <mxGeometry y="52" width="160" height="108" as="geometry" />
        </mxCell>
        <mxCell id="LuhnGRTxvPrDxVC7QRrJ-64" value=" DAOInterface&amp;lt;T&amp;gt;" style="swimlane;fontStyle=0;childLayout=stackLayout;horizontal=1;startSize=26;fillColor=none;horizontalStack=0;resizeParent=1;resizeParentMax=0;resizeLast=0;collapsible=1;marginBottom=0;whiteSpace=wrap;html=1;" parent="1" vertex="1">
          <mxGeometry x="680" y="240" width="160" height="120" as="geometry" />
        </mxCell>
        <mxCell id="LuhnGRTxvPrDxVC7QRrJ-65" value="+ insert(T): int&lt;div&gt;+ read(int): T&lt;div&gt;+ update(T): void&lt;div&gt;+ delete(T): void&lt;div&gt;+ findAll(): List&amp;lt;T&amp;gt;&lt;/div&gt;&lt;/div&gt;&lt;/div&gt;&lt;/div&gt;" style="text;strokeColor=none;fillColor=none;align=left;verticalAlign=top;spacingLeft=4;spacingRight=4;overflow=hidden;rotatable=0;points=[[0,0.5],[1,0.5]];portConstraint=eastwest;whiteSpace=wrap;html=1;" parent="LuhnGRTxvPrDxVC7QRrJ-64" vertex="1">
          <mxGeometry y="26" width="160" height="94" as="geometry" />
        </mxCell>
      </root>
    </mxGraphModel>
  </diagram>
</mxfile>
